<?xml version="1.0" encoding="UTF-8"?>
<svg id="Layer_1" xmlns="http://www.w3.org/2000/svg" version="1.1" viewBox="0 0 323 104.6">
  <!-- Generator: Adobe Illustrator 29.8.2, SVG Export Plug-In . SVG Version: 2.1.1 Build 3)  -->
  <defs>
    <style>
      .st0 {
        fill: #fff;
      }

      .st1 {
        fill: #27aae1;
      }
    </style>
  </defs>
  <g>
    <path class="st1" d="M71,46.2l-44.5,44.5c3.8,1.4,7.9,2.2,12.2,2.2,19.5,0,35.3-15.8,35.3-35.3s-1.1-7.3-3-11.3Z"/>
    <path class="st1" d="M4,64.3L50.4,18h0c0,0,4.6-4.7,4.6-4.7l8.6-8.6,4.7-4.7h-23.6s-12.3,0-12.3,0l6.1,6.1h0l-7.1,7.1h0s0,0,0,0C21.3,23.6,3.4,43.6,3.4,57.5c0,2.3.2,4.6.7,6.8Z"/>
    <path class="st1" d="M56.4,24.7L7.3,73.7l-1.2,1.2-1.4-1.4L0,68.8v9.4s0,2.9,0,2.9v23.6s4.5-4.5,4.5-4.5l9.4-9.4,4.1-4.1.3-.3,48.2-48.2c-3-4.6-6.6-9.2-10.1-13.4Z"/>
  </g>
  <g>
    <g>
      <path class="st0" d="M105.5,11.9h40.4l-2,13h-23.7l-1.6,10.1h18.9l-1.8,11.8h-18.9l-1.7,10.8h25.1l-2,13h-41.8l9.3-58.6Z"/>
      <path class="st0" d="M155.8,11.9h16.9l-7.2,45.6h22.1l-2.1,13h-39l9.3-58.6Z"/>
      <path class="st0" d="M203.3,11.9h17l-9.3,58.6h-17l9.3-58.6Z"/>
      <path class="st0" d="M241,24.9h-15.2l2.1-13h47.2l-2.1,13h-15.2l-7.1,45.7h-16.9l7.1-45.7Z"/>
      <path class="st0" d="M282.6,11.9h40.4l-2,13h-23.7l-1.6,10.1h18.9l-1.8,11.8h-18.9l-1.7,10.8h25.1l-2,13h-41.8l9.3-58.6Z"/>
    </g>
    <g>
      <path class="st0" d="M93.8,87c0-4.1,2.9-7.3,6.9-7.3s5.2,1.3,5.3,4.4h-2.8c-.1-1.4-1.1-2.1-2.6-2.1-2.5,0-3.9,2.3-3.9,5s1.1,3.5,3.2,3.5,2.9-1.1,3.2-2.6h-2.8l.3-2.1h5.6c-.3,4.7-2.5,6.9-6.4,6.9s-6-2.2-6-5.6Z"/>
      <path class="st0" d="M117.2,89.7h-4.5l-1.3,2.8h-2.7l6.1-12.5h3.7l2.1,12.5h-2.9l-.4-2.8ZM113.7,87.7h3.3l-.8-5.4-2.5,5.4Z"/>
      <path class="st0" d="M124.3,88.5h2.7c0,1.1.7,2.1,2.4,2.1,1.4,0,2.1-.6,2.1-1.7s-.5-1.2-2.1-1.6c-2.8-.6-4-1.6-4-3.6s1.8-3.9,4.7-3.9,4.5,1.2,4.5,3.8h-2.6c0-1.2-.8-1.7-2-1.7s-1.9.6-1.9,1.5.5,1.1,2.1,1.5c2.7.7,4,1.6,4,3.6s-1.8,4.2-5,4.2c-3.3,0-5.1-1.7-5.1-4.1Z"/>
      <path class="st0" d="M140.6,79.9h8l-.4,2.2h-5.2l-.5,3.3h4.1l-.4,2.1h-4.1l-.8,4.9h-2.8l2-12.5Z"/>
      <path class="st0" d="M153.5,79.9h2.9l-2,12.5h-2.9l2-12.5Z"/>
      <path class="st0" d="M162,79.9h8.1l-.4,2.2h-5.3l-.5,2.9h4.3l-.3,2.1h-4.3l-.5,3.1h5.6l-.4,2.2h-8.5l2-12.5Z"/>
      <path class="st0" d="M175.3,79.9h2.8l-1.6,10.3h5.1l-.4,2.2h-7.9l2-12.5Z"/>
      <path class="st0" d="M187.9,79.9h3.7c4.2,0,6.2,2.1,6.2,5.3,0,4.3-2.8,7.2-7.3,7.2h-4.6l2-12.5ZM190.5,90.2c2.8,0,4.3-1.8,4.3-4.9s-1-3.2-3.3-3.2h-1.1l-1.3,8.1h1.4Z"/>
      <path class="st0" d="M208,88.5h2.7c0,1.1.7,2.1,2.4,2.1,1.4,0,2.1-.6,2.1-1.7s-.5-1.2-2.1-1.6c-2.8-.6-4-1.6-4-3.6s1.8-3.9,4.7-3.9,4.5,1.2,4.5,3.8h-2.6c0-1.2-.8-1.7-2-1.7s-1.9.6-1.9,1.5.5,1.1,2.1,1.5c2.7.7,4,1.6,4,3.6s-1.8,4.2-5,4.2c-3.3,0-5.1-1.7-5.1-4.1Z"/>
      <path class="st0" d="M224.2,79.9h8.1l-.4,2.2h-5.3l-.5,2.9h4.3l-.3,2.1h-4.3l-.5,3.1h5.6l-.4,2.2h-8.5l2-12.5Z"/>
      <path class="st0" d="M237.5,79.9h4.4c2.8,0,4.3,1.2,4.3,3.4,0,2.2-1.4,3.4-3.2,3.8l2.6,5.3h-2.9l-2.4-4.8h-1.3l-.8,4.8h-2.8l2-12.5ZM241.1,85.7c1.5,0,2.3-.6,2.3-2.1,0-1.1-.6-1.5-1.9-1.5h-1.5l-.6,3.6h1.7Z"/>
      <path class="st0" d="M250.5,79.9h2.9l1.5,9.6,4.5-9.6h2.8l-6.2,12.5h-3.3l-2.2-12.5Z"/>
      <path class="st0" d="M266.6,79.9h2.9l-2,12.5h-2.9l2-12.5Z"/>
      <path class="st0" d="M273.4,87.1c0-4.2,2.7-7.4,6.9-7.4s5.1,1.5,5.2,4.6h-2.8c-.2-1.5-.9-2.3-2.5-2.3-2.5,0-3.8,2.3-3.8,5.1,0,2,.9,3.3,3,3.3s2.6-.9,3-2.4h2.8c-.6,3-2.9,4.7-5.8,4.7s-5.9-2-5.9-5.5Z"/>
      <path class="st0" d="M291,79.9h8.1l-.4,2.2h-5.3l-.5,2.9h4.3l-.3,2.1h-4.3l-.5,3.1h5.6l-.4,2.2h-8.5l2-12.5Z"/>
      <path class="st0" d="M302.1,88.5h2.7c0,1.1.7,2.1,2.4,2.1,1.4,0,2.1-.6,2.1-1.7s-.5-1.2-2.1-1.6c-2.8-.6-4-1.6-4-3.6s1.8-3.9,4.7-3.9,4.5,1.2,4.5,3.8h-2.6c0-1.2-.8-1.7-2-1.7s-1.9.6-1.9,1.5.5,1.1,2.1,1.5c2.7.7,4,1.6,4,3.6s-1.8,4.2-5,4.2c-3.3,0-5.1-1.7-5.1-4.1Z"/>
    </g>
  </g>
</svg>